HIERARCHY
ROOT Hips
{
	OFFSET	0.00	0.00	0.00
	CHANNELS 6 Xposition Yposition Zposition Zrotation Xrotation Yrotation
	JOINT LeftUpLeg
	{
		OFFSET	 0.126116	-0.065224	 0.014019
		CHANNELS 3 Zrotation Xrotation Yrotation
		JOINT LeftLeg
		{
			OFFSET	 0.000000	 0.569914	 0.000000
			CHANNELS 3 Zrotation Xrotation Yrotation
			JOINT LeftFoot
			{
				OFFSET	 0.000000	 0.544423	 0.000000
				CHANNELS 3 Zrotation Xrotation Yrotation
				JOINT LeftToeBase
				{
					OFFSET	 0.000000	 0.207117	 0.000000
					CHANNELS 3 Zrotation Xrotation Yrotation
					End Site
					{
						OFFSET	 0.000000	 0.207117	 0.000000
					}
				}
			}
		}
	}
	JOINT RightUpLeg
	{
		OFFSET	-0.124023	-0.065224	 0.008373
		CHANNELS 3 Zrotation Xrotation Yrotation
		JOINT RightLeg
		{
			OFFSET	 0.000000	 0.570047	 0.000000
			CHANNELS 3 Zrotation Xrotation Yrotation
			JOINT RightFoot
			{
				OFFSET	 0.000000	 0.544354	 0.000000
				CHANNELS 3 Zrotation Xrotation Yrotation
				JOINT RightToeBase
				{
					OFFSET	 0.000000	 0.207540	 0.000000
					CHANNELS 3 Zrotation Xrotation Yrotation
					End Site
					{
						OFFSET	 0.000000	 0.207540	 0.000000
					}
				}
			}
		}
	}
	JOINT Spine
	{
		OFFSET	 0.000184	 0.117403	 0.007763
		CHANNELS 3 Zrotation Xrotation Yrotation
		JOINT Spine1
		{
			OFFSET	 0.000000	 0.137269	 0.000000
			CHANNELS 3 Zrotation Xrotation Yrotation
			JOINT Spine2
			{
				OFFSET	 0.000000	 0.156879	 0.000000
				CHANNELS 3 Zrotation Xrotation Yrotation
				JOINT LeftShoulder
				{
					OFFSET	 0.080501	 0.160143	 0.002496
					CHANNELS 3 Zrotation Xrotation Yrotation
					JOINT LeftArm
					{
						OFFSET	 0.000000	 0.164363	 0.000000
						CHANNELS 3 Zrotation Xrotation Yrotation
						JOINT LeftForeArm
						{
							OFFSET	 0.000000	 0.364576	 0.000000
							CHANNELS 3 Zrotation Xrotation Yrotation
							JOINT LeftHand
							{
								OFFSET	 0.000000	 0.360812	 0.000000
								CHANNELS 3 Zrotation Xrotation Yrotation
								JOINT LeftHandIndex1
								{
									OFFSET	 0.000000	 0.086006	 0.000000
									CHANNELS 3 Zrotation Xrotation Yrotation
									JOINT LeftHandIndex2
									{
										OFFSET	 0.000000	 0.047237	 0.000000
										CHANNELS 3 Zrotation Xrotation Yrotation
										JOINT LeftHandIndex3
										{
											OFFSET	-0.004284	 0.038165	 0.000551
											CHANNELS 3 Zrotation Xrotation Yrotation
											End Site
											{
												OFFSET	-0.004284	 0.038165	 0.000551
											}
										}
									}
								}
							}
						}
					}
				}
				JOINT Neck
				{
					OFFSET	 0.000000	 0.176489	 0.000000
					CHANNELS 3 Zrotation Xrotation Yrotation
					JOINT Head
					{
						OFFSET	 0.000000	 0.077941	 0.001747
						CHANNELS 3 Zrotation Xrotation Yrotation
						End Site
						{
							OFFSET	 0.000000	 0.077941	 0.001747
						}
					}
				}
				JOINT RightShoulder
				{
					OFFSET	-0.080363	 0.159706	-0.000306
					CHANNELS 3 Zrotation Xrotation Yrotation
					JOINT RightArm
					{
						OFFSET	 0.000000	 0.164196	 0.000000
						CHANNELS 3 Zrotation Xrotation Yrotation
						JOINT RightForeArm
						{
							OFFSET	 0.000000	 0.365611	 0.000000
							CHANNELS 3 Zrotation Xrotation Yrotation
							JOINT RightHand
							{
								OFFSET	 0.000000	 0.360648	 0.000000
								CHANNELS 3 Zrotation Xrotation Yrotation
								JOINT RightHandIndex1
								{
									OFFSET	 0.000000	 0.069977	 0.000000
									CHANNELS 3 Zrotation Xrotation Yrotation
									JOINT RightHandIndex2
									{
										OFFSET	 0.000000	 0.052305	 0.000000
										CHANNELS 3 Zrotation Xrotation Yrotation
										JOINT RightHandIndex3
										{
											OFFSET	 0.009002	 0.042196	 0.000782
											CHANNELS 3 Zrotation Xrotation Yrotation
											End Site
											{
												OFFSET	 0.009002	 0.042196	 0.000782
											}
										}
									}
								}
							}
						}
					}
				}
			}
		}
	}
}
MOTION
Frames:    7
Frame Time: 0.03333334
-0.007097	 1.249119	 0.027521	 4.100054	 0.231755	 174.000600	-170.233000	 15.417730	 5.119417	 2.501802	-25.334760	 1.138473	 46.729370	 47.186560	-64.137470	 4.912823	 28.009650	-6.307259	-174.398300	 0.225371	 1.534534	-1.680623	-18.793350	 1.901629	-62.654120	 61.249520	 70.744680	-0.375498	 31.170440	 1.632053	 1.289860	 4.497422	-0.135892	 6.813118	 4.679561	 0.122952	-4.912406	-1.540636	 3.534780	-112.572500	 3.139759	 88.315730	 28.094140	 50.426140	 3.831524	 5.018689	-0.264237	 0.580182	-3.804617	 3.593744	-44.428010	-8.025080	 12.502970	-5.831279	-7.228703	 12.665570	 2.804224	 4.963066	-4.014628	-0.346955	 1.527870	-13.929460	 1.348159	-1.951618	 8.609004	-27.418130	 109.137200	 0.665780	-88.590670	-13.279380	 61.442730	 12.737300	-5.098817	-0.471396	 41.401670	-8.572107	 1.662045	-53.556670	 2.021640	 8.325096	 8.960827	 15.202860	 20.243350	-6.342649	-8.239867	-2.131385	 0.447455
-0.007272	 1.249191	 0.032380	 3.964659	 0.187991	 173.981400	-170.189100	 15.459580	 4.410323	 2.479163	-25.133970	 1.132438	 46.597390	 46.975950	-63.846440	 4.912823	 28.009660	-6.307257	-174.607000	 0.819036	 2.148083	-1.735443	-19.361230	 1.874724	-62.728420	 61.261120	 70.894760	-0.376241	 31.171350	 1.632789	 1.368935	 4.579924	-0.278170	 5.659271	 4.143786	 0.153969	-3.666738	-0.820884	 3.841588	-112.568300	 3.134453	 88.314990	 28.566490	 50.630320	 3.306492	 4.996574	-0.262798	 0.584169	-5.156535	 2.882722	-44.487970	-8.020217	 12.506960	-5.832482	-7.228725	 12.664650	 2.804098	 4.963066	-4.014628	-0.346955	 1.523512	-13.922840	 1.350384	-1.905558	 8.830463	-27.361090	 109.131900	 0.669821	-88.592740	-13.629030	 60.867950	 13.101030	-5.088170	-0.473229	 41.384460	-7.008855	 2.385711	-54.079170	 2.017453	 8.313806	 8.960730	 15.202880	 20.245850	-6.343335	-8.239867	-2.131385	 0.447455
-0.007449	 1.249322	 0.037257	 3.806756	 0.126622	 173.986900	-170.183400	 15.608430	 3.716296	 2.475353	-25.100140	 1.140692	 46.528970	 46.820220	-63.642940	 4.912824	 28.009660	-6.307253	-174.843600	 1.416984	 2.780159	-1.787147	-19.893160	 1.832745	-62.801030	 61.240430	 71.035610	-0.378281	 31.173850	 1.634812	 1.430179	 4.659039	-0.461458	 4.475197	 3.564591	 0.060880	-2.411748	-0.102192	 4.386469	-112.556600	 3.119936	 88.313000	 29.020690	 50.850330	 2.748138	 4.981545	-0.261181	 0.595429	-6.693030	 2.099359	-45.013810	-8.006856	 12.517910	-5.835787	-7.228786	 12.662100	 2.803751	 4.963066	-4.014628	-0.346955	 1.511543	-13.904650	 1.356500	-1.854266	 9.104631	-27.264710	 109.117400	 0.680894	-88.598370	-13.937460	 60.314460	 13.450780	-5.083439	-0.480583	 41.337150	-5.382916	 3.271289	-55.209620	 2.005954	 8.282789	 8.960458	 15.202920	 20.252730	-6.345218	-8.239867	-2.131385	 0.447455
-0.007573	 1.249602	 0.042181	 3.597736	 0.032922	 174.036500	-170.230200	 15.799640	 3.035965	 2.469924	-25.051930	 1.156616	 46.457080	 46.658870	-63.417210	 4.912825	 28.009670	-6.307247	-175.132200	 2.031938	 3.436369	-1.834389	-20.376220	 1.771318	-62.878490	 61.165080	 71.174710	-0.382054	 31.178460	 1.638554	 1.448680	 4.725033	-0.679084	 3.215044	 2.898786	-0.183854	-1.107761	 0.653340	 5.208252	-112.535200	 3.093078	 88.309300	 29.453370	 51.096080	 2.142997	 4.977615	-0.259468	 0.616349	-8.495624	 1.236271	-46.057520	-7.982137	 12.538170	-5.841908	-7.228899	 12.657400	 2.803109	 4.963066	-4.014628	-0.346955	 1.489398	-13.871000	 1.367824	-1.795680	 9.447375	-27.126410	 109.090600	 0.701367	-88.608730	-14.208750	 59.785090	 13.796980	-5.087312	-0.495272	 41.249440	-3.614908	 4.323185	-57.059950	 1.984682	 8.225405	 8.959939	 15.203010	 20.265460	-6.348700	-8.239867	-2.131385	 0.447455
-0.007726	 1.249830	 0.046946	 3.374347	-0.065919	 174.108200	-170.303900	 15.989350	 2.393915	 2.462992	-24.990070	 1.180916	 46.402490	 46.487270	-63.201070	 4.912827	 28.009680	-6.307238	-175.441600	 2.644687	 4.103461	-1.882012	-20.859940	 1.687464	-62.995610	 61.074020	 71.351720	-0.387720	 31.185380	 1.644173	 1.449656	 4.810605	-0.913767	 1.935701	 2.145072	-0.580441	 0.206865	 1.447562	 6.320560	-112.503000	 3.052751	 88.303810	 29.884370	 51.390630	 1.472974	 4.986488	-0.257592	 0.647753	-10.589710	 0.330069	-47.658390	-7.945022	 12.568590	-5.851116	-7.229067	 12.650340	 2.802145	 4.963066	-4.014628	-0.346955	 1.456145	-13.820500	 1.384845	-1.730448	 9.856589	-26.944090	 109.050300	 0.732137	-88.624330	-14.425710	 59.262010	 14.125560	-5.101155	-0.517989	 41.117710	-1.680153	 5.504987	-59.680390	 1.952752	 8.139261	 8.959120	 15.203140	 20.284570	-6.353931	-8.239867	-2.131385	 0.447455
-0.007908	 1.250000	 0.051718	 3.118425	-0.174199	 174.208700	-170.419100	 16.184120	 1.768810	 2.453825	-24.908470	 1.215307	 46.365030	 46.297010	-62.986240	 4.912830	 28.009700	-6.307223	-175.793800	 3.285713	 4.810892	-1.933220	-21.376720	 1.575447	-63.172210	 60.964120	 71.591130	-0.395763	 31.195210	 1.652149	 1.421718	 4.923945	-1.191960	 0.579148	 1.235789	-1.177921	 1.594695	 2.345688	 7.824111	-112.457300	 2.995491	 88.295980	 30.333300	 51.763100	 0.698928	 5.007929	-0.255530	 0.692281	-13.153720	-0.628420	-49.997020	-7.892333	 12.611740	-5.864220	-7.229307	 12.640330	 2.800778	 4.963066	-4.014628	-0.346955	 1.408941	-13.748840	 1.409046	-1.655422	 10.353360	-26.699060	 108.993200	 0.775825	-88.646420	-14.584820	 58.717890	 14.439910	-5.127611	-0.550660	 40.931020	 0.590066	 6.844624	-63.337140	 1.907447	 8.017010	 8.957876	 15.203320	 20.311690	-6.361353	-8.239867	-2.131385	 0.447455
-0.008116	 1.250154	 0.056373	 2.858980	-0.296419	 174.334000	-170.549300	 16.381610	 1.177525	 2.442585	-24.808350	 1.260109	 46.349720	 46.088920	-62.784710	 4.912834	 28.009710	-6.307206	-176.165100	 3.941519	 5.547097	-1.986530	-21.910780	 1.435963	-63.394190	 60.840550	 71.879620	-0.406300	 31.208080	 1.662599	 1.381927	 5.062552	-1.528738	-0.789725	 0.153552	-2.001461	 3.005092	 3.358499	 9.753602	-112.397400	 2.920520	 88.285870	 30.782920	 52.236550	-0.169113	 5.046298	-0.253264	 0.750809	-16.235570	-1.556747	-53.171790	-7.823299	 12.668240	-5.881446	-7.229621	 12.627210	 2.798987	 4.963066	-4.014628	-0.346955	 1.347093	-13.655020	 1.440822	-1.573055	 10.924750	-26.382500	 108.918400	 0.833063	-88.675280	-14.646770	 58.150830	 14.701040	-5.168086	-0.593656	 40.686490	 3.248277	 8.263972	-68.150240	 1.848126	 7.856892	 8.956100	 15.203570	 20.347210	-6.371077	-8.239867	-2.131385	 0.447455
